<?xml version="1.0" standalone="no"?>
<!DOCTYPE svg PUBLIC "-//W3C//DTD SVG 20010904//EN"
 "http://www.w3.org/TR/2001/REC-SVG-20010904/DTD/svg10.dtd">
<svg version="1.0" xmlns="http://www.w3.org/2000/svg"
 width="40.000000pt" height="40.000000pt" viewBox="0 0 40.000000 40.000000"
 preserveAspectRatio="xMidYMid meet">

<g transform="translate(0.000000,40.000000) scale(0.100000,-0.100000)"
fill="#000000" stroke="none">
<path d="M179 224 c-8 -9 -23 -14 -39 -12 -22 3 -26 0 -24 -16 1 -12 3 -26 3
-32 2 -18 41 -54 59 -53 16 1 16 2 0 6 -23 6 -23 16 1 37 17 16 20 15 42 -4
20 -17 22 -21 9 -30 -20 -13 -4 -13 21 1 40 21 45 89 7 89 -7 0 -7 -5 0 -13 6
-7 7 -18 3 -26 -11 -17 -54 -4 -47 14 3 9 0 12 -10 8 -9 -3 -14 2 -14 15 0 11
6 23 13 25 7 4 8 6 1 6 -6 1 -17 -6 -25 -15z m-5 -65 c-23 -25 -30 -24 -29 6
0 32 26 51 38 29 6 -10 3 -22 -9 -35z"/>
</g>
</svg>
